<?xml version="1.0" encoding="utf-8"?>
<!-- Generator: Adobe Illustrator 24.2.0, SVG Export Plug-In . SVG Version: 6.00 Build 0)  -->
<svg version="1.0" id="Layer_1" xmlns="http://www.w3.org/2000/svg" xmlns:xlink="http://www.w3.org/1999/xlink" x="0px" y="0px"
	 viewBox="0 0 349.71 34.62" style="enable-background:new 0 0 349.71 34.62;" xml:space="preserve">
<style type="text/css">
	.st0{fill:#79242F;}
</style>
<path d="M4.17,21.34H0.69c-0.22,0-0.38-0.18-0.38-0.38v-0.58c0-0.2,0.16-0.38,0.38-0.38h8.48c0.22,0,0.38,0.18,0.38,0.38v0.58
	c0,0.2-0.16,0.38-0.38,0.38H5.69v12.28c0,0.2-0.18,0.38-0.38,0.38H4.55c-0.2,0-0.38-0.18-0.38-0.38V21.34z"/>
<path d="M11.53,20.38c0-0.2,0.18-0.38,0.38-0.38h0.78c0.22,0,0.38,0.18,0.38,0.38v5.84h8.12v-5.84c0-0.2,0.16-0.38,0.38-0.38h0.78
	c0.2,0,0.38,0.18,0.38,0.38v13.24c0,0.2-0.18,0.38-0.38,0.38h-0.78c-0.22,0-0.38-0.18-0.38-0.38v-6.06h-8.12v6.06
	c0,0.2-0.16,0.38-0.38,0.38h-0.78c-0.2,0-0.38-0.18-0.38-0.38V20.38z"/>
<path d="M26.59,20.38c0-0.2,0.16-0.38,0.38-0.38h7.88c0.22,0,0.38,0.18,0.38,0.38v0.58c0,0.2-0.16,0.38-0.38,0.38h-6.72v4.88h5.74
	c0.2,0,0.38,0.18,0.38,0.38v0.58c0,0.22-0.18,0.38-0.38,0.38h-5.74v5.1h6.72c0.22,0,0.38,0.18,0.38,0.38v0.58
	c0,0.2-0.16,0.38-0.38,0.38h-7.88c-0.22,0-0.38-0.18-0.38-0.38V20.38z"/>
<path class="st0" d="M49.28,33.48L42.97,1.37c-0.1-0.43,0.09-0.62,0.48-0.62H48c0.33,0,0.57,0.14,0.62,0.52l3.33,19.81
	c0.05,0.19,0.24,0.19,0.29,0l2.99-19.81c0.05-0.38,0.29-0.52,0.62-0.52h3.8c0.33,0,0.57,0.14,0.62,0.52l3.23,19.81
	c0.05,0.19,0.24,0.19,0.29,0l2.99-19.81c0.05-0.38,0.28-0.52,0.62-0.52h4.42c0.38,0,0.57,0.24,0.52,0.62l-6.03,32.11
	C66.24,33.86,66,34,65.67,34h-4.04c-0.33,0-0.57-0.14-0.62-0.52l-3.18-20.19c-0.05-0.24-0.24-0.24-0.29,0L54.6,33.48
	C54.56,33.86,54.32,34,53.99,34H49.9C49.57,34,49.33,33.86,49.28,33.48z"/>
<path class="st0" d="M88.33,33.53l-4.08-13.68c-0.05-0.09-0.09-0.19-0.24-0.19h-2.47c-0.14,0-0.24,0.09-0.24,0.24v13.54
	c0,0.33-0.24,0.57-0.57,0.57h-4.37c-0.33,0-0.57-0.24-0.57-0.57V1.27c0-0.33,0.24-0.57,0.57-0.57h8.93c5.08,0,8.5,3.94,8.5,9.69
	c0,3.94-1.62,6.94-4.32,8.36c-0.14,0.05-0.19,0.14-0.14,0.29l4.66,14.3c0.14,0.43-0.1,0.67-0.48,0.67h-4.56
	C88.61,34,88.42,33.81,88.33,33.53z M81.3,5.69v9.45c0,0.14,0.09,0.24,0.24,0.24h2.9c2.28,0,3.85-1.85,3.85-4.89
	c0-3.14-1.57-5.04-3.85-5.04h-2.9C81.39,5.45,81.3,5.55,81.3,5.69z"/>
<path class="st0" d="M97.12,25.45V9.25c0-5.46,3.56-8.88,8.93-8.88c5.42,0,9.02,3.42,9.02,8.88v0.57c0,0.33-0.24,0.62-0.57,0.62
	l-4.42,0.19c-0.33,0-0.57-0.19-0.57-0.57V8.87c0-2.23-1.38-3.75-3.47-3.75c-2.04,0-3.42,1.52-3.42,3.75v17.01
	c0,2.23,1.38,3.75,3.42,3.75c2.09,0,3.47-1.52,3.47-3.75v-1.19c0-0.33,0.24-0.57,0.57-0.57l4.42,0.19c0.33,0,0.57,0.24,0.57,0.57
	v0.57c0,5.42-3.61,8.93-9.02,8.93C100.68,34.38,97.12,30.87,97.12,25.45z"/>
<path d="M130.31,19.8c2.02,0,3.48,0.7,4.84,1.86c0.16,0.16,0.18,0.4,0.02,0.56c-0.18,0.18-0.4,0.38-0.56,0.56
	c-0.18,0.2-0.3,0.18-0.52-0.02c-1.02-0.9-2.46-1.56-3.8-1.56c-3.16,0-5.56,2.64-5.56,5.74c0,3.08,2.4,5.78,5.56,5.78
	c2.2,0,3.6-0.84,3.6-0.84v-2.8h-2.3c-0.22,0-0.38-0.16-0.38-0.36v-0.74c0-0.22,0.16-0.38,0.38-0.38h3.46c0.2,0,0.36,0.18,0.36,0.38
	v4.58c0,0.1-0.08,0.26-0.16,0.32c0,0-2.04,1.32-4.94,1.32c-4,0-7.22-3.18-7.22-7.18S126.31,19.8,130.31,19.8z"/>
<path d="M138.69,20.38c0-0.2,0.16-0.38,0.38-0.38h5.18c2.4,0,4.36,1.88,4.36,4.26c0,1.84-1.22,3.38-2.96,4.08l2.74,5.08
	c0.14,0.26,0,0.58-0.34,0.58h-1.02c-0.18,0-0.28-0.1-0.32-0.18l-2.66-5.3h-3.82v5.1c0,0.2-0.18,0.38-0.38,0.38h-0.78
	c-0.22,0-0.38-0.18-0.38-0.38V20.38z M144.15,27.2c1.54,0,2.88-1.28,2.88-2.92c0-1.52-1.34-2.82-2.88-2.82h-3.88v5.74H144.15z"/>
<path d="M158.05,19.8c4,0,7.2,3.22,7.2,7.22s-3.2,7.18-7.2,7.18s-7.18-3.18-7.18-7.18S154.05,19.8,158.05,19.8z M158.05,32.8
	c3.18,0,5.8-2.6,5.8-5.78s-2.62-5.82-5.8-5.82s-5.78,2.64-5.78,5.82S154.87,32.8,158.05,32.8z"/>
<path d="M167.95,20.38c0-0.2,0.18-0.38,0.38-0.38h0.76c0.22,0,0.38,0.18,0.38,0.38v8.34c0,2.28,1.42,4.06,3.76,4.06
	c2.36,0,3.8-1.74,3.8-4.02v-8.38c0-0.2,0.16-0.38,0.38-0.38h0.76c0.2,0,0.38,0.18,0.38,0.38v8.46c0,3.04-2.16,5.36-5.32,5.36
	c-3.14,0-5.28-2.32-5.28-5.36V20.38z"/>
<path d="M182.45,20.38c0-0.2,0.16-0.38,0.38-0.38h4.42c2.46,0,4.48,2,4.48,4.42c0,2.48-2.02,4.5-4.46,4.5h-3.3v4.7
	c0,0.2-0.18,0.38-0.38,0.38h-0.76c-0.22,0-0.38-0.18-0.38-0.38V20.38z M187.15,27.44c1.64,0,3.04-1.34,3.04-3.06
	c0-1.62-1.4-2.86-3.04-2.86h-3.18v5.92H187.15z"/>
<path d="M204.97,19.8c4,0,7.2,3.22,7.2,7.22s-3.2,7.18-7.2,7.18s-7.18-3.18-7.18-7.18S200.97,19.8,204.97,19.8z M204.97,32.8
	c3.18,0,5.8-2.6,5.8-5.78s-2.62-5.82-5.8-5.82s-5.78,2.64-5.78,5.82S201.79,32.8,204.97,32.8z"/>
<path d="M215.23,20.38c0-0.2,0.16-0.38,0.38-0.38h7.88c0.22,0,0.38,0.18,0.38,0.38v0.58c0,0.2-0.16,0.38-0.38,0.38h-6.72v5.48h5.74
	c0.2,0,0.38,0.18,0.38,0.38v0.58c0,0.2-0.18,0.38-0.38,0.38h-5.74v5.46c0,0.2-0.18,0.38-0.38,0.38h-0.78
	c-0.22,0-0.38-0.18-0.38-0.38V20.38z"/>
<path d="M237.25,19.8c2.02,0,3.48,0.7,4.84,1.86c0.16,0.16,0.18,0.4,0.02,0.56l-0.54,0.54c-0.16,0.2-0.32,0.18-0.52-0.02
	c-1.04-0.9-2.46-1.5-3.82-1.5c-3.16,0-5.58,2.66-5.58,5.76c0,3.08,2.42,5.74,5.58,5.74c1.74,0,2.76-0.7,3.82-1.5
	c0.2-0.16,0.36-0.14,0.48-0.06l0.6,0.54c0.16,0.12,0.12,0.4-0.02,0.54c-1.36,1.32-3.08,1.94-4.86,1.94c-4,0-7.22-3.18-7.22-7.18
	S233.25,19.8,237.25,19.8z"/>
<path d="M251.29,19.8c4,0,7.2,3.22,7.2,7.22s-3.2,7.18-7.2,7.18s-7.18-3.18-7.18-7.18S247.29,19.8,251.29,19.8z M251.29,32.8
	c3.18,0,5.8-2.6,5.8-5.78s-2.62-5.82-5.8-5.82s-5.78,2.64-5.78,5.82S248.11,32.8,251.29,32.8z"/>
<path d="M263.03,20.08c0.04-0.16,0.2-0.28,0.36-0.28h0.32c0.14,0,0.3,0.1,0.34,0.22l3.96,11.02c0.04,0,0.06,0,0.1,0l3.9-11.02
	c0.04-0.12,0.2-0.22,0.34-0.22h0.32c0.16,0,0.32,0.12,0.36,0.28l2.58,13.44c0.06,0.28-0.06,0.48-0.36,0.48h-0.8
	c-0.16,0-0.32-0.14-0.36-0.28l-1.78-10.3c-0.02,0-0.06,0-0.08,0l-3.68,10.56c-0.04,0.12-0.22,0.22-0.34,0.22h-0.36
	c-0.12,0-0.3-0.1-0.34-0.22l-3.72-10.56c-0.02,0-0.06,0-0.08,0l-1.74,10.3c-0.02,0.14-0.2,0.28-0.36,0.28h-0.8
	c-0.3,0-0.42-0.2-0.36-0.48L263.03,20.08z"/>
<path d="M278.69,20.38c0-0.2,0.16-0.38,0.38-0.38h4.42c2.46,0,4.48,2,4.48,4.42c0,2.48-2.02,4.5-4.46,4.5h-3.3v4.7
	c0,0.2-0.18,0.38-0.38,0.38h-0.76c-0.22,0-0.38-0.18-0.38-0.38V20.38z M283.39,27.44c1.64,0,3.04-1.34,3.04-3.06
	c0-1.62-1.4-2.86-3.04-2.86h-3.18v5.92H283.39z"/>
<path d="M288.13,33.48l6.08-13.46c0.06-0.12,0.16-0.22,0.34-0.22h0.2c0.18,0,0.28,0.1,0.34,0.22l6.04,13.46
	c0.12,0.26-0.04,0.52-0.34,0.52h-0.8c-0.18,0-0.3-0.12-0.34-0.22l-1.48-3.3h-7.1l-1.46,3.3c-0.04,0.1-0.16,0.22-0.34,0.22h-0.8
	C288.17,34,288.01,33.74,288.13,33.48z M297.63,29.24c-0.98-2.18-1.94-4.38-2.92-6.56h-0.16l-2.92,6.56H297.63z"/>
<path d="M303.33,20.16c0-0.2,0.18-0.36,0.38-0.36h0.5l9.02,11.24c0.02,0,0.02,0,0.04,0V20.38c0-0.2,0.16-0.38,0.38-0.38h0.7
	c0.2,0,0.38,0.18,0.38,0.38v13.46c0,0.2-0.18,0.36-0.38,0.36h-0.36l-9.18-11.46h-0.02v10.88c0,0.2-0.16,0.38-0.38,0.38h-0.7
	c-0.2,0-0.38-0.18-0.38-0.38V20.16z"/>
<path d="M318.87,20.38c0-0.2,0.18-0.38,0.38-0.38h0.8c0.2,0,0.38,0.18,0.38,0.38v13.24c0,0.2-0.18,0.38-0.38,0.38h-0.8
	c-0.2,0-0.38-0.18-0.38-0.38V20.38z"/>
<path d="M324.57,20.38c0-0.2,0.16-0.38,0.38-0.38h7.88c0.22,0,0.38,0.18,0.38,0.38v0.58c0,0.2-0.16,0.38-0.38,0.38h-6.72v4.88h5.74
	c0.2,0,0.38,0.18,0.38,0.38v0.58c0,0.22-0.18,0.38-0.38,0.38h-5.74v5.1h6.72c0.22,0,0.38,0.18,0.38,0.38v0.58
	c0,0.2-0.16,0.38-0.38,0.38h-7.88c-0.22,0-0.38-0.18-0.38-0.38V20.38z"/>
<path d="M335.51,31.9c0.1-0.12,0.2-0.26,0.3-0.38c0.2-0.26,0.42-0.42,0.7-0.18c0.14,0.12,1.6,1.52,3.38,1.52
	c1.62,0,2.68-1.02,2.68-2.2c0-1.38-1.2-2.2-3.5-3.16c-2.2-0.96-3.52-1.86-3.52-4.14c0-1.36,1.08-3.56,4.26-3.56
	c1.96,0,3.42,1.02,3.42,1.02c0.12,0.06,0.36,0.3,0.12,0.68c-0.08,0.12-0.16,0.26-0.24,0.38c-0.18,0.28-0.38,0.36-0.7,0.18
	c-0.14-0.08-1.4-0.92-2.62-0.92c-2.12,0-2.76,1.36-2.76,2.2c0,1.34,1.02,2.12,2.7,2.82c2.7,1.1,4.44,2.12,4.44,4.44
	c0,2.08-1.98,3.6-4.32,3.6c-2.36,0-3.96-1.38-4.22-1.62C335.47,32.44,335.27,32.28,335.51,31.9z"/>
<path d="M347.4,19.82c1.14,0,2.07,0.93,2.07,2.07s-0.93,2.07-2.07,2.07s-2.07-0.93-2.07-2.07S346.27,19.82,347.4,19.82z
	 M347.4,23.61c0.96,0,1.72-0.77,1.72-1.72c0-0.96-0.76-1.72-1.72-1.72c-0.95,0-1.72,0.76-1.72,1.72
	C345.68,22.84,346.46,23.61,347.4,23.61z M346.69,20.94c0-0.06,0.05-0.11,0.11-0.11h0.82c0.36,0,0.71,0.21,0.71,0.64
	s-0.31,0.59-0.47,0.63c0.11,0.22,0.23,0.45,0.34,0.68c0.04,0.07-0.02,0.16-0.1,0.16h-0.2c-0.05,0-0.09-0.05-0.1-0.08l-0.32-0.72
	h-0.43v0.69c0,0.06-0.05,0.11-0.11,0.11h-0.15c-0.06,0-0.11-0.05-0.11-0.11V20.94z M347.61,21.8c0.21,0,0.35-0.15,0.35-0.33
	c0-0.2-0.13-0.33-0.35-0.33h-0.56v0.66H347.61z"/>
</svg>
